<?xml version="1.0" encoding="iso-8859-1"?>
<!-- Generator: Adobe Illustrator 19.0.0, SVG Export Plug-In . SVG Version: 6.00 Build 0)  -->
<svg version="1.1" id="Capa_1" xmlns="http://www.w3.org/2000/svg" xmlns:xlink="http://www.w3.org/1999/xlink" x="0px" y="0px"
	 viewBox="0 0 512 512" style="enable-background:new 0 0 512 512;" xml:space="preserve">
<path style="fill:#72D8FF;" d="M123.484,256H52.516c-13.522,0-24.484-10.962-24.484-24.484v-73.628H147.97v73.628
	C147.969,245.038,137.007,256,123.484,256z"/>
<g>
	<path style="fill:#D8D8E4;" d="M50.979,63.887L50.979,63.887c-7.18,0-13,5.82-13,13v41h26v-41
		C63.979,69.708,58.159,63.887,50.979,63.887z"/>
	<path style="fill:#D8D8E4;" d="M124.979,63.887L124.979,63.887c-7.18,0-13,5.82-13,13v41h26v-41
		C137.979,69.708,132.159,63.887,124.979,63.887z"/>
</g>
<path style="fill:#4DBAF6;" d="M146,157.887H30c-11.046,0-20-8.954-20-20l0,0c0-11.046,8.954-20,20-20h116c11.046,0,20,8.954,20,20
	l0,0C166,148.933,157.046,157.887,146,157.887z"/>
<path style="fill:#72D8FF;" d="M290,30v34h144V30c0-11.046-8.954-20-20-20H310C298.954,10,290,18.954,290,30z"/>
<path style="fill:#D8D8E4;" d="M502,104v358c0,22.091-17.909,40-40,40H262c-22.091,0-40-17.909-40-40V104c0-22.091,17.909-40,40-40
	h200C484.091,64,502,81.909,502,104z"/>
<rect x="266" y="115" style="fill:#62CD4D;" width="192" height="336"/>
<polygon style="fill:#FFFFFF;" points="427,265.019 380.257,265.019 380.257,173.781 297,300.875 343.743,300.875 343.743,392.219 
	"/>
<path d="M462,54h-18V30c0-16.542-13.458-30-30-30H310c-16.542,0-30,13.458-30,30v24h-18c-27.57,0-50,22.43-50,50v334h-75.439
	c-21.203,0-38.453-17.25-38.453-38.453V339c0-5.522-4.478-10-10-10s-10,4.478-10,10v60.547c0,32.231,26.222,58.453,58.453,58.453
	H212v4c0,27.57,22.43,50,50,50h200c27.57,0,50-22.43,50-50V104C512,76.43,489.57,54,462,54z M300,30c0-5.514,4.486-10,10-10h104
	c5.514,0,10,4.486,10,10v24H300V30z M492,462c0,16.542-13.458,30-30,30H262c-16.542,0-30-13.458-30-30V104c0-16.542,13.458-30,30-30
	h200c16.542,0,30,13.458,30,30V462z"/>
<path d="M458,105H266c-5.522,0-10,4.478-10,10v48.667c0,5.522,4.478,10,10,10s10-4.478,10-10V125h172v316H276V250.764
	c0-5.522-4.478-10-10-10s-10,4.478-10,10V451c0,5.522,4.478,10,10,10h192c5.522,0,10-4.478,10-10V115
	C468,109.478,463.522,105,458,105z"/>
<path d="M266,218.75c2.63,0,5.21-1.07,7.069-2.931c1.86-1.859,2.931-4.439,2.931-7.069s-1.07-5.21-2.931-7.07
	c-1.859-1.86-4.439-2.93-7.069-2.93s-5.21,1.069-7.07,2.93s-2.93,4.44-2.93,7.07s1.069,5.21,2.93,7.069
	C260.79,217.68,263.37,218.75,266,218.75z"/>
<path d="M383.116,164.199c-4.244-1.27-8.803,0.404-11.225,4.103l-83.257,127.094c-2.013,3.072-2.179,7.002-0.433,10.233
	c1.747,3.232,5.124,5.246,8.798,5.246h36.743v81.344c0,4.422,2.904,8.319,7.143,9.583c0.945,0.282,1.906,0.418,2.856,0.418
	c3.311,0,6.486-1.649,8.368-4.524l83.257-127.2c2.012-3.073,2.176-7.002,0.43-10.232c-1.747-3.23-5.124-5.244-8.797-5.244h-36.743
	v-81.237C390.257,169.359,387.354,165.463,383.116,164.199z M408.503,275.019l-54.76,83.662v-57.806c0-5.522-4.478-10-10-10h-28.237
	l54.751-83.579v57.723c0,5.522,4.478,10,10,10H408.503z"/>
<path d="M81.04,289.43c-1.87,1.86-2.931,4.44-2.931,7.07s1.061,5.21,2.931,7.069c1.859,1.86,4.439,2.931,7.069,2.931
	c2.631,0,5.21-1.07,7.07-2.931c1.86-1.859,2.93-4.439,2.93-7.069s-1.069-5.21-2.93-7.07s-4.439-2.93-7.07-2.93
	C85.479,286.5,82.899,287.569,81.04,289.43z"/>
<path d="M157.969,231.516V165.39C168.57,160.758,176,150.177,176,137.888c0-15.876-12.399-28.904-28.021-29.927V76.888
	c0-12.683-10.317-23-23-23s-23,10.317-23,23v31h-28v-31c0-12.683-10.317-23-23-23s-23,10.317-23,23v31.076
	C12.377,109.007,0,122.025,0,137.888c0,12.289,7.43,22.87,18.031,27.502v66.126c0,19.015,15.47,34.484,34.484,34.484h70.969
	C142.499,266,157.969,250.53,157.969,231.516z M121.979,76.888c0-1.654,1.346-3,3-3s3,1.346,3,3v31h-6V76.888z M47.979,76.888
	c0-1.654,1.346-3,3-3s3,1.346,3,3v31h-6V76.888z M30,127.888h116c5.514,0,10,4.486,10,10s-4.486,10-10,10H30
	c-5.514,0-10-4.486-10-10S24.486,127.888,30,127.888z M38.031,231.516v-63.628h99.938v63.628c0,7.986-6.498,14.484-14.484,14.484
	H52.516C44.529,246,38.031,239.502,38.031,231.516z"/>
<path d="M111.979,196.943H64.021c-5.522,0-10,4.478-10,10s4.478,10,10,10h47.959c5.522,0,10-4.478,10-10
	S117.502,196.943,111.979,196.943z"/>
<g>
</g>
<g>
</g>
<g>
</g>
<g>
</g>
<g>
</g>
<g>
</g>
<g>
</g>
<g>
</g>
<g>
</g>
<g>
</g>
<g>
</g>
<g>
</g>
<g>
</g>
<g>
</g>
<g>
</g>
</svg>
