<?xml version="1.0" encoding="iso-8859-1"?>
<!-- Generator: Adobe Illustrator 19.0.0, SVG Export Plug-In . SVG Version: 6.00 Build 0)  -->
<svg version="1.1" id="Capa_1" xmlns="http://www.w3.org/2000/svg" xmlns:xlink="http://www.w3.org/1999/xlink" x="0px" y="0px"
	 viewBox="0 0 496 496" style="enable-background:new 0 0 496 496;" xml:space="preserve">
<polygon style="fill:#8C95A4;" points="304,8 208,8 192,56 320,56 "/>
<polygon style="fill:#798699;" points="192,56 320,56 312,32 200,32 "/>
<g>
	<path style="fill:#ECECEC;" d="M160,56H88C43.816,56,8,91.816,8,136l0,0h152V56z"/>
	<path style="fill:#ECECEC;" d="M136,232h288c35.344,0,64-28.656,64-64v-32H136V232z"/>
</g>
<rect x="152" y="136" style="fill:#B6C1CE;" width="336" height="24"/>
<circle style="fill:#39C3FC;" cx="136" cy="152" r="80"/>
<g>
	<path style="fill:#148CE0;" d="M136,72c-4.088,0-8.072,0.408-12,1c38.472,5.8,68,38.904,68,79s-29.528,73.2-68,79
		c3.928,0.592,7.912,1,12,1c44.184,0,80-35.816,80-80S180.184,72,136,72z"/>
	<circle style="fill:#148CE0;" cx="136" cy="152" r="32"/>
</g>
<path style="fill:#8C95A4;" d="M88,56h336c35.344,0,64,28.656,64,64v16H168l0,0C168,91.816,132.184,56,88,56L88,56z"/>
<path style="fill:#AFB8C9;" d="M328,272v96c0,4.416,3.584,8,8,8h104v48H312c-17.672,0-32-14.328-32-32V272H328z"/>
<path style="fill:#8C95A4;" d="M280,299.304c7.416,3.008,15.504,4.696,24,4.696s16.584-1.688,24-4.696V272h-48V299.304z"/>
<rect x="408" y="376" style="fill:#FEA82F;" width="32" height="48"/>
<g>
	<path style="fill:#8C95A4;" d="M472,312h16v176h-16c-17.672,0-32-14.328-32-32V344C440,326.328,454.328,312,472,312z"/>
	<circle style="fill:#8C95A4;" cx="304" cy="240" r="40"/>
</g>
<rect x="376" y="168" style="fill:#FEA82F;" width="48" height="32"/>
<path d="M136,176c-13.232,0-24-10.768-24-24s10.768-24,24-24v-16c-22.056,0-40,17.944-40,40s17.944,40,40,40
	c14.24,0,27.512-7.664,34.648-20l-13.856-8C152.512,171.4,144.544,176,136,176z"/>
<path d="M352,240h72c39.696,0,72-32.304,72-72v-48c0-39.696-32.304-72-72-72h-98.232l-16-48H202.232l-16,48H88
	C39.48,48,0,87.48,0,136v8h48.408c-0.24,2.64-0.408,5.296-0.408,8c0,48.52,39.48,88,88,88h120c0,14.168,6.208,26.88,16,35.68V392
	c0,22.056,17.944,40,40,40h120v24c0,22.056,17.944,40,40,40h24V304h-24c-22.056,0-40,17.944-40,40v24h-96v-92.32
	C345.792,266.88,352,254.168,352,240z M448,344c0-13.232,10.768-24,24-24h8v160h-8c-13.232,0-24-10.768-24-24V344z M304,272
	c-17.648,0-32-14.352-32-32s14.352-32,32-32s32,14.352,32,32S321.648,272,304,272z M213.768,16h84.472l10.664,32h-105.8L213.768,16z
	 M424,64c30.88,0,56,25.12,56,56v8H175.64c-2.392-26.464-16.608-49.512-37.248-64H424z M16.44,128C20.432,92.048,51,64,88,64
	c7.952,0,15.576,1.344,22.736,3.736C82.088,76.344,59.6,99.176,51.408,128H16.44z M64,152c0-38.8,30.872-70.448,69.336-71.864
	C149.584,93.352,160,113.472,160,136v8h47.528c0.288,2.648,0.472,5.32,0.472,8c0,39.696-32.304,72-72,72S64,191.696,64,152z
	 M258.8,224h-72.36c22.672-15.936,37.56-42.24,37.56-72c0-2.672-0.16-5.344-0.4-8H480v24c0,30.88-25.12,56-56,56h-74.8
	c-6.608-18.616-24.344-32-45.2-32S265.408,205.384,258.8,224z M432,416h-16v-32h16V416z M336,384h64v32h-88
	c-13.232,0-24-10.768-24-24V285.2c5.016,1.784,10.384,2.8,16,2.8s10.984-1.024,16-2.8V368C320,376.824,327.176,384,336,384z"/>
<path d="M432,160h-64v48h64V160z M416,192h-32v-16h32V192z"/>
<rect x="184" y="80" width="128" height="16"/>
<rect x="368" y="96" width="16" height="16"/>
<rect x="400" y="96" width="16" height="16"/>
<rect x="432" y="96" width="16" height="16"/>
<g>
</g>
<g>
</g>
<g>
</g>
<g>
</g>
<g>
</g>
<g>
</g>
<g>
</g>
<g>
</g>
<g>
</g>
<g>
</g>
<g>
</g>
<g>
</g>
<g>
</g>
<g>
</g>
<g>
</g>
</svg>
