<svg height="512" viewBox="0 0 64 64" width="512" xmlns="http://www.w3.org/2000/svg"><path d="m55 23 6 8h-5-5-19-19-5-5l6-8h4 38z" fill="#ffeb99"/><path d="m56 31v29a1 1 0 0 1 -1 1h-31v-17a1 1 0 0 0 -1-1h-8a1 1 0 0 0 -1 1v17h-5a1 1 0 0 1 -1-1v-29z" fill="#ff7956"/><rect fill="#57a4ff" height="10" rx="1" width="22" x="30" y="43"/><g fill="#ffeb99"><circle cx="45" cy="17" r="2"/><circle cx="45" cy="37" r="2"/><circle cx="32" cy="17" r="2"/><circle cx="32" cy="37" r="2"/><path d="m24 44v17h-10v-17a1 1 0 0 1 1-1h8a1 1 0 0 1 1 1z"/><circle cx="19" cy="17" r="2"/><circle cx="19" cy="37" r="2"/></g><path d="m61.8 30.4-6-8a1 1 0 0 0 -.8-.4h-3v-5a1 1 0 0 0 -1-1h-3.184a3 3 0 1 0 0 2h2.184v4h-36v-4h2.184a3 3 0 1 0 0-2h-3.184a1 1 0 0 0 -1 1v5h-3a1 1 0 0 0 -.8.4l-6 8a1 1 0 0 0 .8 1.6h4v28a2 2 0 0 0 2 2h46a2 2 0 0 0 2-2v-28h4a1 1 0 0 0 .8-1.6zm-16.8-12.4a1 1 0 1 1 1-1 1 1 0 0 1 -1 1zm-26-2a1 1 0 1 1 -1 1 1 1 0 0 1 1-1zm4 44h-8v-16h8zm32 0h-30v-16a2 2 0 0 0 -2-2h-8a2 2 0 0 0 -2 2v16h-4v-28h3v5a1 1 0 0 0 1 1h3.184a3 3 0 1 0 0-2h-2.184v-4h17v2.184a3 3 0 1 0 2 0v-2.184h17v4h-2.184a3 3 0 1 0 0 2h3.184a1 1 0 0 0 1-1v-5h3zm-37-23a1 1 0 1 1 1 1 1 1 0 0 1 -1-1zm15 0a1 1 0 1 1 -1-1 1 1 0 0 1 1 1zm13 0a1 1 0 1 1 -1-1 1 1 0 0 1 1 1zm-41-7 4.5-6h45l4.5 6z"/><path d="m51 42h-20a2 2 0 0 0 -2 2v8a2 2 0 0 0 2 2h20a2 2 0 0 0 2-2v-8a2 2 0 0 0 -2-2zm-20 10v-8h20v8z"/><path d="m32 4a12.95 12.95 0 0 1 9.194 3.809l1.411-1.417a15 15 0 0 0 -21.21 0l1.411 1.417a12.95 12.95 0 0 1 9.194-3.809z"/><path d="m39.777 9.223a10.994 10.994 0 0 0 -15.554 0l1.414 1.414a9 9 0 0 1 12.726 0z"/><path d="m36.951 12.056a6.989 6.989 0 0 0 -9.9 0l1.421 1.408a4.988 4.988 0 0 1 7.06 0z"/><path d="m29 17a3 3 0 1 0 3-3 3 3 0 0 0 -3 3zm4 0a1 1 0 1 1 -1-1 1 1 0 0 1 1 1z"/></svg>