<svg id="Capa_1" enable-background="new 0 0 512 512" height="512" viewBox="0 0 512 512" width="512" xmlns="http://www.w3.org/2000/svg"><g><g><path clip-rule="evenodd" d="m7.507 25.5v312.747h496.987v-312.747c0-9.921-8.107-18-18-18h-460.988c-9.921 0-17.999 8.079-17.999 18z" fill="#9fd4fe" fill-rule="evenodd"/></g><g><path clip-rule="evenodd" d="m300.659 258.679c-2.863 0-5.216 2.353-5.216 5.216v27.411c0 2.863 2.353 5.216 5.216 5.216h156.61c2.863 0 5.216-2.353 5.216-5.216v-27.411c0-2.863-2.353-5.216-5.216-5.216z" fill="#ffd772" fill-rule="evenodd"/></g><g><path clip-rule="evenodd" d="m154.111 277.586c57.74 0 104.568-46.8 104.568-104.57s-46.828-104.599-104.568-104.599c-57.769 0-104.596 46.828-104.596 104.599s46.827 104.57 104.596 104.57zm17.263-104.769c0 9.524-7.738 17.263-17.263 17.263-9.553 0-17.291-7.739-17.291-17.263 0-9.553 7.738-17.263 17.291-17.263 9.524 0 17.263 7.71 17.263 17.263z" fill="#eff6ff" fill-rule="evenodd"/></g><g><path clip-rule="evenodd" d="m295.443 204.735c0 2.976 2.438 5.386 5.414 5.386h50.257v-53.547h-55.671z" fill="#eff6ff" fill-rule="evenodd"/></g><g><path clip-rule="evenodd" d="m295.443 103.028h55.671v53.547h-55.671z" fill="#eff6ff" fill-rule="evenodd"/></g><g><path clip-rule="evenodd" d="m295.443 103.028h55.671v-53.547h-50.257c-2.976 0-5.414 2.438-5.414 5.414z" fill="#eff6ff" fill-rule="evenodd"/></g><g><path clip-rule="evenodd" d="m351.114 49.481h55.699v53.547h-55.699z" fill="#eff6ff" fill-rule="evenodd"/></g><g><path clip-rule="evenodd" d="m351.114 103.028h55.699v53.547h-55.699z" fill="#eff6ff" fill-rule="evenodd"/></g><g><path clip-rule="evenodd" d="m351.114 156.574h55.699v53.547h-55.699z" fill="#eff6ff" fill-rule="evenodd"/></g><g><path clip-rule="evenodd" d="m406.814 156.574v53.547h50.285c2.948 0 5.386-2.409 5.386-5.386v-48.161z" fill="#eb5468" fill-rule="evenodd"/></g><g><path clip-rule="evenodd" d="m406.814 103.028h55.671v53.547h-55.671z" fill="#eff6ff" fill-rule="evenodd"/></g><g><path clip-rule="evenodd" d="m406.814 103.028h55.671v-48.133c0-2.976-2.438-5.414-5.386-5.414h-50.285z" fill="#eff6ff" fill-rule="evenodd"/></g><g><path clip-rule="evenodd" d="m325.461 390.263-67.859-15.023-71.092 15.023-19.983 62.986 91.075 12.615 87.871-12.615z" fill="#375e7d" fill-rule="evenodd"/></g><g><path clip-rule="evenodd" d="m345.473 453.249h-178.946-32.144c-14.088 0-25.625 11.537-25.625 25.625v20.466c0 2.721 2.154 4.989 4.819 5.159h284.818c2.693-.17 4.819-2.438 4.819-5.159v-20.466c0-14.088-11.537-25.625-25.625-25.625z" fill="#407093" fill-rule="evenodd"/></g><g><path clip-rule="evenodd" d="m504.493 338.247h-496.986v34.016c0 9.893 8.079 18 18 18h161.003 138.951 161.032c9.893 0 18-8.107 18-18z" fill="#407093" fill-rule="evenodd"/></g><g><path clip-rule="evenodd" d="m154.111 70.656c39.911 14.74 68.37 53.121 68.37 98.164s-28.459 83.424-68.37 98.164c-9.439 3.487-19.53 5.641-30.018 6.236 9.496 2.863 19.587 4.365 30.018 4.365 57.74 0 104.568-46.8 104.568-104.57s-46.828-104.598-104.568-104.598c-2.098 0-4.167.057-6.208.17 2.098.623 4.167 1.332 6.208 2.069z" fill="#d9eeff" fill-rule="evenodd"/></g><g><path clip-rule="evenodd" d="m504.493 338.247h-125.005c-17.291 20.183-37.53 37.332-60.036 50.684-.737.454-1.502.879-2.268 1.332h8.277 161.032c9.893 0 18-8.107 18-18z" fill="#375e7d" fill-rule="evenodd"/></g><g><path clip-rule="evenodd" d="m379.488 338.247h125.005v-312.747c0-9.921-8.107-18-18-18h-94.023c9.439 13.039 17.716 27.099 24.689 41.981h39.939c2.948 0 5.386 2.438 5.386 5.414v48.132 53.547 48.161c0 2.976-2.438 5.386-5.386 5.386h-18.311c-2.806 16.809-7.143 33.052-12.812 48.558h31.294c2.863 0 5.216 2.353 5.216 5.216v27.411c0 2.863-2.353 5.216-5.216 5.216h-48.67c-8.39 14.995-18.141 28.97-29.111 41.725z" fill="#85beef" fill-rule="evenodd"/></g><g><path clip-rule="evenodd" d="m408.599 296.521h48.67c2.863 0 5.216-2.353 5.216-5.216v-27.411c0-2.863-2.353-5.216-5.216-5.216h-31.294c-4.847 13.182-10.658 25.824-17.376 37.843z" fill="#fbba58" fill-rule="evenodd"/></g><g><path clip-rule="evenodd" d="m438.788 210.121h18.311c2.948 0 5.386-2.409 5.386-5.386v-48.161h-20.097c.085 2.693.113 5.386.113 8.079 0 15.506-1.276 30.728-3.713 45.468z" fill="#e5384f" fill-rule="evenodd"/></g><g><path clip-rule="evenodd" d="m442.388 156.574h20.097v-53.547h-26.9c3.94 17.236 6.292 35.151 6.803 53.547z" fill="#d9eeff" fill-rule="evenodd"/></g><g><path clip-rule="evenodd" d="m435.585 103.028h26.9v-48.133c0-2.976-2.438-5.414-5.386-5.414h-39.939c7.908 16.866 14.116 34.81 18.425 53.547z" fill="#d9eeff" fill-rule="evenodd"/></g><g><path clip-rule="evenodd" d="m280.902 390.263 19.984 62.986h32.144 12.443l-20.012-62.986h-8.277z" fill="#2b4d66" fill-rule="evenodd"/></g><g><path clip-rule="evenodd" d="m345.473 453.249h-12.443c2.268 0 4.45.312 6.52.85 10.97 2.92 19.105 12.954 19.105 24.775v20.466c0 2.721-2.126 4.989-4.819 5.159h44.56c2.693-.17 4.819-2.438 4.819-5.159v-20.466c0-14.088-11.537-25.625-25.625-25.625z" fill="#375e7d" fill-rule="evenodd"/></g><g><path clip-rule="evenodd" d="m154.111 190.08c9.524 0 17.263-7.739 17.263-17.263 0-9.553-7.738-17.263-17.263-17.263-9.553 0-17.291 7.71-17.291 17.263 0 9.524 7.739 17.263 17.291 17.263z" fill="#ffd772" fill-rule="evenodd"/></g><g><path d="m486.494 0h-460.988c-14.061 0-25.499 11.439-25.499 25.5v346.764c0 14.061 11.438 25.5 25.499 25.5h150.757l-15.225 47.985h-26.655c-18.266 0-33.125 14.86-33.125 33.126v20.466c0 6.98 5.679 12.659 12.659 12.659h284.138c6.98 0 12.659-5.679 12.659-12.659v-20.466c0-18.266-14.859-33.126-33.125-33.126h-26.629l-15.247-47.985h150.781c14.061 0 25.499-11.439 25.499-25.5v-346.764c0-14.061-11.438-25.5-25.499-25.5zm-151.273 445.749h-64.071c-4.143 0-7.5 3.357-7.5 7.5s3.357 7.5 7.5 7.5h106.438c9.994 0 18.125 8.131 18.125 18.126v18.125h-279.455v-18.125c0-9.995 8.131-18.126 18.125-18.126h102.158c4.143 0 7.5-3.357 7.5-7.5s-3.357-7.5-7.5-7.5h-59.767l15.225-47.985h127.976zm151.273-62.985h-460.988c-5.789 0-10.499-4.71-10.499-10.5v-26.517h221.534c4.143 0 7.5-3.357 7.5-7.5s-3.357-7.5-7.5-7.5h-221.534v-305.247c0-5.79 4.71-10.5 10.499-10.5h460.988c5.789 0 10.499 4.71 10.499 10.5v305.247h-225.843c-4.143 0-7.5 3.357-7.5 7.5s3.357 7.5 7.5 7.5h225.843v26.517c0 5.79-4.71 10.5-10.499 10.5z"/><path d="m154.111 60.917c-61.81 0-112.096 50.287-112.096 112.099 0 61.796 50.286 112.07 112.096 112.07 61.794 0 112.067-50.274 112.067-112.07.001-61.812-50.273-112.099-112.067-112.099zm86.539 119.4h10.255c-1.581 21.164-9.981 40.456-23.001 55.687l-7.291-7.291c-2.93-2.928-7.678-2.928-10.607 0-2.929 2.93-2.929 7.678 0 10.607l7.307 7.307c-15.216 13.084-34.517 21.543-55.702 23.17v-10.439c0-4.143-3.357-7.5-7.5-7.5s-7.5 3.357-7.5 7.5v10.439c-21.192-1.626-40.499-10.086-55.72-23.17l7.319-7.303c2.932-2.926 2.937-7.674.011-10.606s-7.675-2.936-10.606-.011l-7.314 7.299c-13.025-15.232-21.428-34.525-23.01-55.69h10.282c4.143 0 7.5-3.357 7.5-7.5s-3.357-7.5-7.5-7.5h-10.252c1.664-21.111 10.109-40.344 23.153-55.517l7.141 7.125c1.465 1.461 3.381 2.191 5.298 2.191 1.922 0 3.844-.734 5.309-2.202 2.926-2.933 2.921-7.681-.011-10.606l-7.115-7.1c15.19-12.989 34.418-21.385 55.517-23.004v10.071c0 4.143 3.357 7.5 7.5 7.5s7.5-3.357 7.5-7.5v-10.069c21.088 1.619 40.308 10.013 55.492 22.999l-7.119 7.104c-2.933 2.926-2.938 7.675-.013 10.606 1.466 1.469 3.387 2.203 5.31 2.203 1.916 0 3.834-.73 5.298-2.19l7.146-7.13c13.041 15.174 21.485 34.407 23.149 55.521h-10.226c-4.143 0-7.5 3.357-7.5 7.5s3.358 7.499 7.5 7.499z"/><path d="m197.196 165.317h-19.486c-3.185-9.999-12.558-17.264-23.599-17.264-.893 0-1.774.05-2.643.142l-17.136-41.109c-1.594-3.822-5.985-5.627-9.809-4.037-3.823 1.594-5.631 5.985-4.037 9.809l17.252 41.387c-5.156 4.542-8.418 11.182-8.418 18.572 0 13.654 11.121 24.763 24.791 24.763 11.041 0 20.414-7.264 23.599-17.263h19.486c4.143 0 7.5-3.357 7.5-7.5s-3.357-7.5-7.5-7.5zm-43.085 17.263c-5.398 0-9.791-4.38-9.791-9.763 0-5.384 4.393-9.764 9.791-9.764 5.383 0 9.763 4.38 9.763 9.764 0 5.383-4.38 9.763-9.763 9.763z"/><path d="m300.857 217.621h156.243c7.104 0 12.885-5.78 12.885-12.886v-149.839c0-7.121-5.78-12.914-12.885-12.914h-156.243c-7.121 0-12.914 5.793-12.914 12.914v149.84c0 7.105 5.793 12.885 12.914 12.885zm154.127-68.547h-40.671v-38.546h40.671zm-96.37-38.546h40.699v38.546h-40.699zm0 53.546h40.699v38.547h-40.699zm40.699-68.546h-40.699v-38.547h40.699zm-55.699 53.546h-40.671v-38.546h40.671zm-40.671 15h40.671v38.547h-40.671zm111.37 38.547v-38.547h40.671v38.547zm40.671-107.093h-40.671v-38.547h40.671zm-111.37-38.547v38.547h-40.671v-38.547z"/><path d="m300.659 304.021h156.61c7.011 0 12.715-5.704 12.715-12.716v-27.411c0-7.012-5.704-12.716-12.715-12.716h-156.61c-7.012 0-12.716 5.704-12.716 12.716v27.411c0 7.012 5.704 12.716 12.716 12.716zm2.284-37.842h152.041v22.843h-152.041z"/></g></g></svg>