<svg id="Layer_1" enable-background="new 0 0 256 256" height="512" viewBox="0 0 256 256" width="512" xmlns="http://www.w3.org/2000/svg"><g><g><path d="m140.352 179.308c-1.381 0-2.5-1.119-2.5-2.5s1.119-2.5 2.5-2.5c4.126 0 7.482-3.356 7.482-7.482 0-4.125-3.356-7.481-7.482-7.481-1.381 0-2.5-1.119-2.5-2.5s1.119-2.5 2.5-2.5c6.883 0 12.482 5.6 12.482 12.481 0 6.882-5.6 12.482-12.482 12.482z" fill="#65c1d6"/></g><g><g fill="#846f75"><path d="m210.826 91.592-34.626-28.196c-1.069-.873-2.645-.711-3.517.36-.872 1.07-.711 2.645.36 3.517l33.704 27.446v27.419h-10.747c-1.381 0-2.5 1.119-2.5 2.5v95.494h-55.5c-1.381 0-2.5 1.119-2.5 2.5s1.119 2.5 2.5 2.5h58.001c1.381 0 2.5-1.119 2.5-2.5v-95.494h10.747c1.381 0 2.5-1.119 2.5-2.5v-31.108c0-.752-.339-1.464-.922-1.938z"/><path d="m118 220.132h-55.501v-95.494c0-1.381-1.119-2.5-2.5-2.5h-10.747v-27.419l33.705-27.446c1.071-.872 1.232-2.446.36-3.517s-2.446-1.232-3.517-.36l-34.627 28.196c-.583.475-.921 1.187-.921 1.938v31.107c0 1.381 1.119 2.5 2.5 2.5h10.747v95.494c0 1.381 1.119 2.5 2.5 2.5h58.001c1.381 0 2.5-1.119 2.5-2.5s-1.119-2.499-2.5-2.499z"/><path d="m140.29 196.999c1.604-1.114 2.562-2.944 2.562-4.896v-48.205c0-1.952-.957-3.782-2.562-4.896-1.604-1.112-3.651-1.37-5.48-.689l-30.361 11.314h-9.597c-1.381 0-2.5 1.119-2.5 2.5v1.924h-2.675c-3.807 0-6.904 3.098-6.904 6.904v14.092c0 3.807 3.097 6.904 6.904 6.904h2.675v1.924c0 1.381 1.119 2.5 2.5 2.5h9.597l30.361 11.314c.675.251 1.379.375 2.08.375 1.199-.001 2.388-.363 3.4-1.065zm-50.613-20.049c-1.05 0-1.904-.854-1.904-1.904v-14.092c0-1.05.854-1.904 1.904-1.904h2.675v17.9zm7.675-22.324h5.048v26.748h-5.048zm39.204 38.377-29.156-10.865v-28.275l29.156-10.865c.412-.155.729.004.883.111.154.106.413.352.413.789v48.205c0 .438-.259.683-.413.789s-.472.264-.883.111z"/><path d="m152.878 182.888c.488.488 1.128.732 1.768.732s1.279-.244 1.768-.732c8.856-8.856 8.856-23.268 0-32.124-.977-.977-2.559-.977-3.535 0s-.977 2.559 0 3.535c6.907 6.907 6.907 18.146 0 25.054-.978.976-.978 2.558-.001 3.535z"/><path d="m161.83 190.804c.64 0 1.279-.244 1.768-.732 6.21-6.209 9.629-14.465 9.629-23.246s-3.419-17.036-9.629-23.245c-.977-.977-2.559-.977-3.535 0-.977.977-.977 2.56 0 3.535 5.265 5.265 8.164 12.265 8.164 19.71s-2.899 14.445-8.164 19.711c-.977.977-.977 2.559 0 3.535.488.488 1.127.732 1.767.732z"/><path d="m103.844 109.524 19.046 17.442c1.457 1.334 3.284 2.001 5.11 2.001s3.653-.667 5.109-2.001l19.047-17.442c7.33-6.712 11.534-16.263 11.534-26.202v-39.121c0-4.172-3.394-7.565-7.565-7.565h-56.25c-4.172 0-7.566 3.394-7.566 7.565v39.121c.001 9.94 4.205 19.491 11.535 26.202zm-6.534-65.323c0-1.415 1.151-2.565 2.566-2.565h56.25c1.415 0 2.565 1.15 2.565 2.565v39.121c0 8.541-3.612 16.747-9.911 22.515l-19.047 17.442c-.988.906-2.477.904-3.465 0l-19.046-17.442c-6.299-5.768-9.911-13.974-9.911-22.515v-39.121z"/></g><g><g><path d="m132.712 90.533h-9.424c-1.381 0-2.5-1.119-2.5-2.5v-32.73c0-1.381 1.119-2.5 2.5-2.5h9.424c1.381 0 2.5 1.119 2.5 2.5v32.73c0 1.381-1.119 2.5-2.5 2.5zm-6.924-5h4.424v-27.73h-4.424z" fill="#65c1d6"/></g><g><path d="m128 105.908c-3.977 0-7.212-3.235-7.212-7.213 0-3.977 3.235-7.212 7.212-7.212s7.212 3.235 7.212 7.212c0 3.978-3.235 7.213-7.212 7.213zm0-9.425c-1.22 0-2.212.992-2.212 2.212s.993 2.213 2.212 2.213 2.212-.993 2.212-2.213-.992-2.212-2.212-2.212z" fill="#65c1d6"/></g></g></g></g></svg>