<svg id="Capa_1" enable-background="new 0 0 512 512" height="512" viewBox="0 0 512 512" width="512" xmlns="http://www.w3.org/2000/svg"><g><path d="m512 256c0 141.385-114.615 256-256 256s-256-114.615-256-256 114.615-256 256-256 256 114.615 256 256z" fill="#00c53b"/><path d="m477.298 267.649c0 115.786-93.863 209.649-209.649 209.649s-209.649-93.863-209.649-209.649 93.863-209.649 209.649-209.649 209.649 93.863 209.649 209.649z" fill="#4bcd5c"/><path d="m399.5 47h-296c-26.191 0-47.5 21.309-47.5 47.5v230c0 26.191 21.309 47.5 47.5 47.5h296c26.191 0 47.5-21.309 47.5-47.5v-230c0-26.191-21.309-47.5-47.5-47.5zm32.5 277.5c0 17.92-14.58 32.5-32.5 32.5h-296c-17.92 0-32.5-14.58-32.5-32.5v-230c0-17.92 14.58-32.5 32.5-32.5h296c17.92 0 32.5 14.58 32.5 32.5z" fill="#002c5d"/><path d="m130 50v10c0 5.523-4.477 10-10 10h-20c-5.523 0-10-4.477-10-10v-10c0-5.523 4.477-10 10-10h20c5.523 0 10 4.477 10 10z" fill="#ff5757"/><path d="m420 50v10c0 5.523-4.477 10-10 10h-20c-5.523 0-10-4.477-10-10v-10c0-5.523 4.477-10 10-10h20c5.523 0 10 4.477 10 10z" fill="#2dd2e3"/><path d="m401 15v410c0 8.284-6.716 15-15 15h-260c-8.284 0-15-6.716-15-15v-410c0-8.284 6.716-15 15-15h260c8.284 0 15 6.716 15 15z" fill="#005aaf"/><path d="m168 440h-42c-8.284 0-15-6.716-15-15v-410c0-8.284 6.716-15 15-15h42c-8.284 0-15 6.716-15 15v410c0 8.284 6.716 15 15 15z" fill="#004b94"/><path d="m327.095 315.936h-142.19c-5.523 0-10-4.477-10-10v-10.626c0-5.523 4.477-10 10-10h142.189c5.523 0 10 4.477 10 10v10.626c.001 5.523-4.476 10-9.999 10zm10-64.127v-10.626c0-5.523-4.477-10-10-10h-142.19c-5.523 0-10 4.477-10 10v10.626c0 5.523 4.477 10 10 10h142.189c5.524 0 10.001-4.478 10.001-10z" fill="#004b94"/><path d="m362 50v140c0 5.523-4.477 10-10 10h-76l-8.351-4.915h-25.713l-5.936 4.915h-76c-5.523 0-10-4.477-10-10v-140c0-5.523 4.477-10 10-10h192c5.523 0 10 4.477 10 10z" fill="#87e0ec"/><path d="m347 146.094v28.812c0 5.523-4.477 10-10 10h-162c-5.523 0-10-4.477-10-10v-28.812c0-50.258 40.742-91 91-91 50.258 0 91 40.742 91 91z" fill="#d5f3f7"/><path d="m218.154 62.971c2.024 3.614.736 8.185-2.878 10.209l-.805.456c-1.177.676-2.46.997-3.727.997-2.599 0-5.125-1.352-6.511-3.768-2.062-3.592-.822-8.176 2.771-10.238.313-.18.627-.357.942-.534 3.613-2.023 8.183-.735 10.208 2.878zm-25.721 17.598c-3.113-2.733-7.851-2.426-10.584.687-.244.277-.485.557-.725.837-2.691 3.149-2.32 7.883.828 10.574 1.414 1.208 3.146 1.799 4.87 1.799 2.117 0 4.221-.892 5.705-2.627.197-.23.395-.458.594-.686 2.732-3.111 2.424-7.85-.688-10.584zm-27.147 55.111c-4.167-.131-7.604 3.116-7.736 7.256-.012.365-.021.729-.029 1.095-.084 4.141 3.205 7.566 7.346 7.651.052.001.104.001.156.001 4.071 0 7.412-3.258 7.496-7.347.006-.307.014-.613.024-.919.132-4.141-3.117-7.604-7.257-7.737zm-.286 31.226c-4.142 0-7.5 3.358-7.5 7.5v.5c0 4.142 3.358 7.5 7.5 7.5s7.5-3.358 7.5-7.5v-.5c0-4.142-3.358-7.5-7.5-7.5zm9.059-61.148c-3.854-1.52-8.209.374-9.728 4.228-.134.339-.266.679-.396 1.02-1.476 3.871.465 8.205 4.335 9.681.88.335 1.783.494 2.671.494 3.021 0 5.869-1.839 7.009-4.829.11-.29.222-.578.335-.865 1.52-3.855-.373-8.21-4.226-9.729zm65.63-56.819c-.361.061-.723.123-1.083.187-4.078.73-6.791 4.627-6.062 8.704.65 3.631 3.811 6.18 7.374 6.18.438 0 .883-.039 1.33-.119.3-.054.601-.106.903-.156 4.086-.68 6.847-4.544 6.167-8.63-.679-4.084-4.544-6.847-8.629-6.166zm33.611.171c-.357-.063-.714-.125-1.072-.184-4.09-.684-7.95 2.081-8.63 6.167s2.081 7.95 6.167 8.63l.913.157c.444.079.884.117 1.32.117 3.567 0 6.73-2.556 7.376-6.19.724-4.08-1.996-7.973-6.074-8.697zm73.7 117.796c-4.142 0-7.5 3.358-7.5 7.5v.5c0 4.142 3.358 7.5 7.5 7.5s7.5-3.358 7.5-7.5v-.5c0-4.142-3.358-7.5-7.5-7.5zm-.025-15.319c.056 0 .111 0 .167-.002 4.141-.09 7.425-3.521 7.334-7.662-.008-.361-.018-.722-.029-1.082-.133-4.14-3.57-7.371-7.737-7.255-4.14.133-7.388 3.597-7.255 7.737l.025.928c.089 4.085 3.429 7.336 7.495 7.336zm-42.032-90.99c-.321-.185-.644-.367-.968-.548-3.617-2.02-8.185-.724-10.204 2.894-2.019 3.617-.723 8.186 2.894 10.204.264.147.527.296.789.447 1.18.68 2.467 1.003 3.738 1.003 2.594 0 5.117-1.348 6.505-3.757 2.068-3.59.835-8.175-2.754-10.243zm38.763 60.006c3.869-1.48 5.805-5.816 4.325-9.685-.13-.341-.263-.681-.397-1.02-1.524-3.852-5.886-5.737-9.734-4.212-3.852 1.525-5.737 5.883-4.212 9.734.113.285.224.571.333.858 1.143 2.987 3.988 4.822 7.006 4.822.891 0 1.798-.16 2.679-.497zm-13.595-39.393c-2.73-3.115-7.468-3.427-10.584-.698-3.115 2.73-3.428 7.468-.698 10.584.203.231.404.463.604.696 1.483 1.732 3.585 2.622 5.7 2.622 1.726 0 3.461-.593 4.875-1.803 3.146-2.694 3.513-7.429.818-10.575-.237-.277-.475-.552-.715-.826z" fill="#00bfd8"/><path d="m266 100v80c0 5.523-4.477 10-10 10s-10-4.477-10-10v-80c0-5.523 4.477-10 10-10s10 4.477 10 10z" fill="#ff7a7a"/><path d="m276 190v10h-40v-10c0-11.046 8.954-20 20-20s20 8.954 20 20z" fill="#ff4343"/><path d="m341 357v15h-237.5c-26.191 0-47.5-21.309-47.5-47.5v-50.5h15v50.5c0 17.92 14.58 32.5 32.5 32.5z" fill="#002c5d"/><path d="m442.182 446.621c-17.275 31.948-51.421 53.435-90.497 52.521-53.138-1.244-96.414-44.519-97.657-97.657-.912-38.964 20.45-73.026 52.247-90.348 1.011-.551 2.138.504 1.661 1.551-5.899 12.967-9.112 27.414-8.929 42.63.651 54.053 44.791 98.194 98.845 98.845 15.328.185 29.874-3.077 42.914-9.058.955-.439 1.916.592 1.416 1.516z" fill="#fa0"/><path d="m454.17 399.085c0 17.375-4.428 33.715-12.216 47.955-14.24 7.788-30.58 12.216-47.955 12.216-55.275 0-100.085-44.81-100.085-100.085 0-17.375 4.428-33.715 12.216-47.955 14.24-7.788 30.58-12.216 47.955-12.216 55.276 0 100.085 44.81 100.085 100.085z" fill="#ffc143"/><path d="m282.683 287.507-10.393-22.737c-1.722-3.767-.064-8.217 3.703-9.939 3.767-1.722 8.217-.064 9.939 3.703l10.393 22.737c1.722 3.767.064 8.217-3.703 9.939-3.767 1.722-8.217.064-9.939-3.703zm-14.23 24.996c3.193-2.638 3.643-7.366 1.005-10.559l-15.924-19.273c-2.638-3.193-7.366-3.643-10.559-1.005-3.193 2.638-3.643 7.366-1.005 10.559l15.924 19.273c2.638 3.194 7.365 3.644 10.559 1.005zm56.086-25.636c4.085-.688 6.838-4.557 6.15-8.642l-4.154-24.652c-.688-4.085-4.557-6.838-8.642-6.149-4.085.688-6.838 4.557-6.149 8.642l4.154 24.652c.687 4.084 4.556 6.837 8.641 6.149zm49.546 112.218h-8c-1.105 0-2-.895-2-2v-51.82c0-3.413-2.767-6.18-6.18-6.18-2.341 0-4.481 1.323-5.528 3.416l-23.82 47.639c-2.055 4.109.934 8.944 5.528 8.944h8c1.105 0 2 .895 2 2v51.82c0 3.413 2.767 6.18 6.18 6.18 2.341 0 4.481-1.323 5.528-3.416l23.82-47.639c2.055-4.109-.933-8.944-5.528-8.944z" fill="#fff5f5"/><path d="m306.5 364v1c0 3.866-3.134 7-7 7h-47c-3.866 0-7-3.134-7-7v-1c0-3.866 3.134-7 7-7h47c3.866 0 7 3.134 7 7z" fill="#e32929"/><path d="m276 361v6c0 5.523-4.477 10-10 10h-38v4c0 5.523-4.477 10-10 10s-10-4.477-10-10v-34c0-5.523 4.477-10 10-10s10 4.477 10 10v4h38c5.523 0 10 4.477 10 10z" fill="#ff5757"/></g></svg>