<svg height="512" viewBox="0 0 512 512" width="512" xmlns="http://www.w3.org/2000/svg"><g id="Flat"><rect fill="#686869" height="464" rx="24" width="256" x="128" y="24"/><path d="m306.61 160a56 56 0 1 1 0-48z" fill="#4e4e4f"/><path d="m344 48h16v16h-16z" fill="#b2b1b4"/><path d="m152 48h16v16h-16z" fill="#b2b1b4"/><g fill="#57c3c1"><path d="m235.334 413.192-12.173-10.383a104.017 104.017 0 0 0 24.839-67.455v-31.354h16v31.354a120.033 120.033 0 0 1 -28.666 77.838z"/><path d="m292.45 444.088-12.9-9.465a166.688 166.688 0 0 0 32.45-99.269v-7.354h16v7.354a182.586 182.586 0 0 1 -35.55 108.734z"/><path d="m328 312h-16a56.019 56.019 0 0 0 -83.12-49.008l-7.762-13.992a72.02 72.02 0 0 1 106.882 63z"/><path d="m190.662 366.326-13.324-8.86a39.8 39.8 0 0 0 6.662-22.112v-23.354a71.923 71.923 0 0 1 18-47.626l12 10.587a55.934 55.934 0 0 0 -14 37.039v23.354a55.759 55.759 0 0 1 -9.338 30.972z"/><path d="m205.6 398.2-11.2-11.426a71.458 71.458 0 0 0 21.6-51.42h16a87.349 87.349 0 0 1 -26.4 62.846z"/><path d="m290.058 377.573-15.373-4.436a136.211 136.211 0 0 0 5.315-37.783v-23.354a24 24 0 0 0 -48 0v7.354h-16v-7.354a40 40 0 0 1 80 0v23.354a152.213 152.213 0 0 1 -5.942 42.219z"/><path d="m270.662 419.41-13.324-8.858a135.964 135.964 0 0 0 12-22.31l14.738 6.225a151.956 151.956 0 0 1 -13.414 24.943z"/></g><path d="m344 448h16v16h-16z" fill="#b2b1b4"/><path d="m152 448h16v16h-16z" fill="#b2b1b4"/><rect fill="#959494" height="48" rx="24" width="256" x="232" y="112"/></g></svg>