<svg height="512" viewBox="0 0 512 512" width="512" xmlns="http://www.w3.org/2000/svg" xmlns:xlink="http://www.w3.org/1999/xlink"><linearGradient id="New_Gradient_Swatch_8" gradientUnits="userSpaceOnUse" x1="89.61" x2="422.39" y1="497.643" y2="164.863"><stop offset=".011" stop-color="#fad46a"/><stop offset="1" stop-color="#fce6aa"/></linearGradient><linearGradient id="New_Gradient_Swatch_18" gradientUnits="userSpaceOnUse" x1="179.515" x2="332.485" y1="459.515" y2="306.544"><stop offset=".015" stop-color="#83839e"/><stop offset="1" stop-color="#b8b8c7"/></linearGradient><linearGradient id="New_Gradient_Swatch_11" gradientUnits="userSpaceOnUse" x1="304.804" x2="463.196" y1="319.196" y2="160.804"><stop offset=".011" stop-color="#60c6be"/><stop offset="1" stop-color="#80d1cb"/></linearGradient><g id="_05-security" data-name="05-security"><g id="linear_color" data-name="linear color"><path d="m494 236.47-224.045-160a24.012 24.012 0 0 0 -27.906 0l-224.049 160 27.9 39.06 42.059-26.751v247.221h336.075v-247.221l42.059 26.751z" fill="url(#New_Gradient_Swatch_8)"/><path d="m184 312h144a24 24 0 0 1 24 24v104a0 0 0 0 1 0 0h-192a0 0 0 0 1 0 0v-104a24 24 0 0 1 24-24z" fill="url(#New_Gradient_Swatch_18)"/><circle cx="384" cy="240" fill="url(#New_Gradient_Swatch_11)" r="112"/><path d="m232 372h12v20a12 12 0 0 0 24 0v-20h12a12 12 0 0 0 0-24h-48a12 12 0 0 0 0 24z"/><path d="m508 240a124.017 124.017 0 0 0 -156.127-119.771l-74.945-53.521a35.991 35.991 0 0 0 -41.852 0l-224.05 160a12 12 0 0 0 -2.79 16.742l27.91 39.059a12 12 0 0 0 16.2 3.149l23.62-15.022v225.364a12 12 0 0 0 12 12h336.064a12 12 0 0 0 12-12v-143.46a124.162 124.162 0 0 0 71.97-112.54zm-95.97 244h-312.06v-235.22a12 12 0 0 0 -18.44-10.126l-32.467 20.646-14.321-20.04 214.285-153.027a12 12 0 0 1 13.95 0l62.368 44.54a124.8 124.8 0 0 0 -54.566 58.678 76.4 76.4 0 0 0 -14.779-1.451 75.983 75.983 0 0 0 -76 76v36.228a36.047 36.047 0 0 0 -32 35.772v104a12 12 0 0 0 12 12h192a12 12 0 0 0 12-12v-77.621a124.38 124.38 0 0 0 48.03-1.575zm-228.03-160h108.874a124.437 124.437 0 0 0 47.126 31.927v72.073h-168v-92a12.013 12.013 0 0 1 12-12zm20-24v-36a51.985 51.985 0 0 1 52-52 52.672 52.672 0 0 1 7.083.481 123.946 123.946 0 0 0 12.433 87.519zm180 40a100 100 0 1 1 100-100 100.113 100.113 0 0 1 -100 100z"/><circle cx="384.551" cy="296" r="12.002"/><path d="m422.746 239.73a68.044 68.044 0 0 0 -77.727.933 12 12 0 1 0 13.962 19.52 44.045 44.045 0 0 1 50.273-.6 12 12 0 0 0 13.492-19.849z"/><path d="m455.326 204.079a116.052 116.052 0 0 0 -142.778.959 12 12 0 0 0 14.9 18.812 92.052 92.052 0 0 1 113.222-.763 12 12 0 1 0 14.652-19.008z"/></g></g></svg>