<svg id="Layer_4" height="512" viewBox="0 0 512 512" width="512" xmlns="http://www.w3.org/2000/svg" data-name="Layer 4"><path d="m96 200h320a0 0 0 0 1 0 0v248a32 32 0 0 1 -32 32h-256a32 32 0 0 1 -32-32v-248a0 0 0 0 1 0 0z" fill="#fcc42d"/><path d="m80 200h352c15.376 0 21.9-19.574 9.6-28.8l-176-132a16 16 0 0 0 -19.2 0l-176 132c-12.3 9.226-5.776 28.8 9.6 28.8z" fill="#0a529b"/><path d="m295.02 303.61q-8.175.33-16.49.52a24 24 0 0 0 -46.53 8.26v32a8 8 0 0 1 -16 0v-32a39.65 39.65 0 0 1 .98-8.78 39.994 39.994 0 0 1 78.04 0z" fill="#fcfafa"/><path d="m295.02 303.61q-8.175.33-16.49.52a23.85 23.85 0 0 1 1.47 8.26v32a8 8 0 0 0 16 0v-32a39.65 39.65 0 0 0 -.98-8.78z" fill="#fcfafa"/><g fill="#064186"><path d="m278.53 304.13a23.85 23.85 0 0 1 1.47 8.26v7.71q-11.88.285-24 .29-12.105 0-24-.29-8.07-.2-16-.53c-45.24-1.86-86.94-6.89-120.2-14.61-47.64-11.06-71.8-26.06-71.8-44.57 0-18.28 23.6-33.15 70.16-44.17a7.7 7.7 0 0 1 1.84-.21v16.22c-44.13 10.71-56 22.7-56 28.16 0 5.64 12.51 18.09 59.42 28.98 32.41 7.53 73.2 12.42 117.56 14.24q8.175.33 16.49.52 11.16.255 22.53.26t22.53-.26z"/><path d="m488 260.39c0 18.51-24.16 33.51-71.8 44.57-33.26 7.72-74.96 12.75-120.2 14.61v-7.18a39.65 39.65 0 0 0 -.98-8.78c44.36-1.82 85.15-6.71 117.56-14.24 46.91-10.89 59.42-23.34 59.42-28.98 0-5.46-11.87-17.45-56-28.16v-16.22a7.843 7.843 0 0 1 1.85.21c46.55 11.02 70.15 25.89 70.15 44.17z"/><path d="m192 344h128v96h-128z"/></g><circle cx="256" cy="384.392" fill="#a2d2f9" r="16"/><path d="m256 424.393a8 8 0 0 1 -8-8v-16a8 8 0 0 1 16 0v16a8 8 0 0 1 -8 8z" fill="#a2d2f9"/><path d="m317.184 77.888-51.584-38.688a16 16 0 0 0 -19.2 0l-152.125 114.094c123.079 4.192 192.484-45.443 222.909-75.406z" fill="#fcfafa" opacity=".2"/><path d="m304 344h16v96h-16z" fill="#05386b"/><path d="m216 360h88v-16h-112v25.385c6.148-4.404 15.073-9.385 24-9.385z" fill="#fcfafa" opacity=".2"/><path d="m128 480h8.814v-280h-40.814v248a32 32 0 0 0 32 32z" fill="#fcfafa" opacity=".2"/><path d="m96 200h320v24h-320z" fill="#064186" opacity=".2"/></svg>