<svg id="filled_outline" height="512" viewBox="0 0 512 512" width="512" xmlns="http://www.w3.org/2000/svg" data-name="filled outline"><path d="m344 296-8 88-48 88 16 16 72-72 24-64v-56z" fill="#62798c"/><path d="m424 141.25v114.75h-80v-24l-16-32-1.14-.57007-6.86 8.57007-8 88h-24l-8-88 10.66992-26.66 17.64014-44.11a31.94321 31.94321 0 0 1 11.96-14.74l39.72994-26.49h32l22.63 22.63a31.99526 31.99526 0 0 1 9.37 22.62z" fill="#6173e8"/><path d="m232 56-.00008 392a24 24 0 0 1 -24 24h-159.99992a24 24 0 0 1 -24-24v-392z" fill="#ffc431"/><path d="m40 40h175.99992a16 16 0 0 1 16 16v16a48 48 0 0 1 -48 48h-111.99992a48 48 0 0 1 -48-48v-16a16 16 0 0 1 16-16z" fill="#ffb401"/><path d="m352 56h48a0 0 0 0 1 0 0v24a24 24 0 0 1 -24 24 24 24 0 0 1 -24-24v-24a0 0 0 0 1 0 0z" fill="#ffceb6"/><path d="m352 56v-16l19.359-12.906a18.42223 18.42223 0 0 1 10.21879-3.094 18.42218 18.42218 0 0 1 18.42221 18.42219v13.57781z" fill="#b1712c"/><path d="m326.86 199.43-6.86 8.57-8 88h-24l-8-88 10.67-26.66z" fill="#ffceb6"/><path d="m344 256v40l40 24 32 72 16 96h24v-112l-32-120z" fill="#718799"/><path d="m424 192 48 56-8 16-40-24z" fill="#ffceb6"/><path d="m64 168h128v120h-128z" fill="#ffe28f"/><path d="m56 384h16v16h-16z"/><path d="m88 416h16v16h-16z"/><path d="m56 416h16v16h-16z"/><path d="m120 416h16v16h-16z"/><path d="m152 416h16v16h-16z"/><path d="m88 384h16v16h-16z"/><path d="m120 384h16v16h-16z"/><path d="m152 384h16v16h-16z"/><path d="m184 384h16v16h-16z"/><path d="m184 416h16v16h-16z"/><path d="m152 336a24 24 0 1 0 -24 24 24.02687 24.02687 0 0 0 24-24zm-24 8a8 8 0 1 1 8-8 8.00917 8.00917 0 0 1 -8 8z"/><path d="m300.88086 134.25684-28.30859 70.772a8.00107 8.00107 0 0 0 -.53956 3.69531l8 88a8.00019 8.00019 0 0 0 7.96729 7.27585h24a8.00019 8.00019 0 0 0 7.96729-7.27588l7.3-80.301 8.73271 17.46555v61.74707l-7.81689 85.98877-47.20606 86.54449a7.9991 7.9991 0 0 0 1.36621 9.48779l16 16a7.99945 7.99945 0 0 0 11.31348 0l72-72a7.99739 7.99739 0 0 0 1.834-2.84766l16.32349-43.52954 8.46216 19.0398 15.83252 94.99609a8 8 0 0 0 7.89109 6.68452h24a7.99977 7.99977 0 0 0 8-8v-112a8.00964 8.00964 0 0 0 -.27-2.06152l-31.73-118.98743v-.82141l27.88379 16.73022a7.99938 7.99938 0 0 0 11.27148-3.28222l8-16a8.00019 8.00019 0 0 0 -1.081-8.78418l-46.07427-53.75318v-47.7854a39.73644 39.73644 0 0 0 -11.71582-28.28418l-16.72852-16.72851a31.79758 31.79758 0 0 0 4.44434-16.24219v-37.57764a26.42176 26.42176 0 0 0 -41.07861-21.98436l-19.35889 12.90575a7.99943 7.99943 0 0 0 -3.5625 6.65625v40a31.79068 31.79068 0 0 0 3.57471 14.669l-31.74271 21.16157a39.8335 39.8335 0 0 0 -14.95114 18.42627zm11.15185 73.019-7.33837 80.72416h-9.38868l-7.16455-78.812 6.72437-16.81116 19.56274 9.78137-.67529.84424a8.0007 8.0007 0 0 0 -1.72022 4.27343zm57.085 204.29248-65.11771 65.11768-6.11035-6.11036 45.1333-82.74463a8.001 8.001 0 0 0 .94434-3.10693l6.84606-75.30688 26.903 16.14184 12.82983 28.867zm78.88229 68.43168h-9.22314l-14.88575-89.31543a7.98437 7.98437 0 0 0 -.58056-1.93359l-32-72a7.99894 7.99894 0 0 0 -3.19483-3.61084l-36.11572-21.66944v-27.4707h65.85364l30.14636 113.04834zm14.46924-230.82666-1.76123 3.522-28.70801-17.22488v-21.84424zm-102.46924-169.17334v-16h32v16a16 16 0 0 1 -32 0zm0-35.71875 15.79639-10.53076a10.42227 10.42227 0 0 1 16.20361 8.67187v5.57764h-32zm-35.293 84.86182 33.67359-22.449a31.9045 31.9045 0 0 0 33.86157.86157l16.72851 16.72852a23.84457 23.84457 0 0 1 7.02933 16.97072v106.74512h-64v-16a7.99583 7.99583 0 0 0 -.84473-3.57764l-14.32617-28.65236 21.418-26.77246-12.49414-9.99512-21.10281 26.37858-23.822-11.911 14.90821-37.27075a23.9048 23.9048 0 0 1 8.97064-11.05618z"/><path d="m282.241 69.379h15.862v16h-15.862z" transform="matrix(.735 -.678 .678 .735 24.468 217.34)"/><path d="m264.408 86.914h13.536v16h-13.536z" transform="matrix(.735 -.678 .678 .735 7.537 209.105)"/><path d="m48 480h160a32.036 32.036 0 0 0 32-32v-88h-16v88a16.01833 16.01833 0 0 1 -16 16h-160a16.01833 16.01833 0 0 1 -16-16v-336.86169a55.82364 55.82364 0 0 0 40 16.86169h112a55.82364 55.82364 0 0 0 40-16.86169v16.43579l-35.12793 32.4259h-124.87207a7.99977 7.99977 0 0 0 -8 8v120a7.99977 7.99977 0 0 0 8 8h124.87207l61.70166 56.95557 10.85254-11.75684-21.42627-19.7782v-145.42053h-16v130.65125l-24-22.15394v-112.99462l61.42627-56.70142-10.85254-11.75684-10.57373 9.76038v-56.80481a24.0275 24.0275 0 0 0 -24-24h-176a24.0275 24.0275 0 0 0 -24 24v392a32.036 32.036 0 0 0 32 32zm136-200h-112v-104h112zm-144-232h176a8.00917 8.00917 0 0 1 8 8v16a40.04521 40.04521 0 0 1 -40 40h-112a40.04521 40.04521 0 0 1 -40-40v-16a8.00917 8.00917 0 0 1 8-8z"/><path d="m282.172 370.69h16v15.862h-16z" transform="matrix(.678 -.735 .735 .678 -184.858 335.038)"/><path d="m263.176 354.318h16v13.536h-16z" transform="matrix(.678 -.735 .735 .678 -178.086 315.443)"/></svg>