<svg height="512" viewBox="0 0 512 512" width="512" xmlns="http://www.w3.org/2000/svg"><g id="fileed_outline" data-name="fileed outline"><path d="m272 320h-128v-128l72-40 56 40z" fill="#ebebeb"/><path d="m272 192h64v128h-64z" fill="#c3c3c3"/><g fill="#2ad3b3"><path d="m158.652 96.067-13.3-8.886a88.095 88.095 0 0 1 99.614-35.149l-4.8 15.264a72.1 72.1 0 0 0 -81.514 28.771z"/><path d="m280.311 98.96a72.53 72.53 0 0 0 -25.754-25.329l8.014-13.848a88.544 88.544 0 0 1 31.451 30.933z"/><path d="m185.278 113.818-13.3-8.886a56.516 56.516 0 0 1 18.578-17.432l8.015 13.848a40.432 40.432 0 0 0 -13.293 12.47z"/><path d="m252.87 115.426a39.729 39.729 0 0 0 -34.307-19.426 40.511 40.511 0 0 0 -6.676.554l-2.647-15.78a56.075 56.075 0 0 1 57.342 26.406z"/><path d="m225.414 131.9a7.981 7.981 0 0 0 -13.509-.328l-13.305-8.89a23.98 23.98 0 0 1 40.525.972z"/></g><path d="m296 216h16v16h-16z" fill="#ebebeb"/><path d="m296 248h16v16h-16z" fill="#ebebeb"/><path d="m296 280h16v40h-16z" fill="#ebebeb"/><circle cx="191.029" cy="248.971" fill="#2ad3b3" r="24.971"/><path d="m184 320h-16v-24a8 8 0 0 1 4.422-7.155l11.578-5.789v-11.056h16v16a8 8 0 0 1 -4.422 7.155l-11.578 5.789z" fill="#2ad3b3"/><path d="m232 320h-16v-32a8 8 0 0 1 1.344-4.438l14.656-21.984v-29.578h16v32a8 8 0 0 1 -1.344 4.438l-14.656 21.984z" fill="#2ad3b3"/><path d="m208 240h-16v-24a8 8 0 0 1 3.562-6.656l20.438-13.625v-43.719h16v48a8 8 0 0 1 -3.562 6.656l-20.438 13.625z" fill="#2ad3b3"/><path d="m208 384h96a8 8 0 0 1 8 8v48a0 0 0 0 1 0 0h-112a0 0 0 0 1 0 0v-48a8 8 0 0 1 8-8z" fill="#27c5a7"/><path d="m240 464h32l8 24h-48z" fill="#a8a8a8"/><path d="m312 440h-112v16a8 8 0 0 0 8 8h96a8 8 0 0 0 8-8z" fill="#ebebeb"/><path d="m400 200h80a8 8 0 0 1 8 8v88a0 0 0 0 1 0 0h-96a0 0 0 0 1 0 0v-88a8 8 0 0 1 8-8z" fill="#ebebeb"/><circle cx="440" cy="248" fill="#2ad3b3" r="24"/><path d="m440 280a32 32 0 1 1 32-32 32.036 32.036 0 0 1 -32 32zm0-48a16 16 0 1 0 16 16 16.019 16.019 0 0 0 -16-16z" fill="#fbfbf9"/><path d="m392 296h96v32h-96z" fill="#c3c3c3"/><rect fill="#ebebeb" height="112" rx="8" width="64" x="24" y="216"/><path d="m24 240h64v64h-64z" fill="#27c5a7"/><path d="m376 152a7.99 7.99 0 0 1 -3.578-.845l-16-8a8 8 0 0 1 7.156-14.31l4.422 2.211v-27.056a8 8 0 0 1 16 0v40a8 8 0 0 1 -8 8z" fill="#007af6"/><path d="m408 176a8 8 0 0 1 -8-8v-40a8 8 0 0 1 11.578-7.155l16 8a8 8 0 1 1 -7.156 14.31l-4.422-2.211v27.056a8 8 0 0 1 -8 8z" fill="#007af6"/><path d="m248 384h-16v-24a8 8 0 0 1 4.422-7.155l11.578-5.789v-27.056h16v32a8 8 0 0 1 -4.422 7.155l-11.578 5.789z" fill="#bce1ff"/><path d="m112 280h-24v-16h19.056l5.789-11.578a8 8 0 0 1 7.155-4.422h24v16h-19.056l-5.789 11.578a8 8 0 0 1 -7.155 4.422z" fill="#bce1ff"/><path d="m392 272h-24a8 8 0 0 1 -7.155-4.422l-5.789-11.578h-19.056v-16h24a8 8 0 0 1 7.155 4.422l5.789 11.578h19.056z" fill="#bce1ff"/><path d="m216 152h64l56 40h-64z" fill="#007af6"/><path d="m80 240h8v64h-8z" fill="#2ad3b3"/><path d="m431.966 57.359c.018-.451.034-.9.034-1.359a32 32 0 0 0 -60.009-15.478 15.944 15.944 0 0 0 -19.991 15.478c0 .455.031.9.068 1.348a24.005 24.005 0 0 0 -16.068 22.652 24 24 0 0 0 24 24h64a24 24 0 0 0 24-24 24.006 24.006 0 0 0 -16.034-22.641z" fill="#bce1ff"/><path d="m218.563 64a71.974 71.974 0 0 1 21.6 3.3l4.8-15.264a88.095 88.095 0 0 0 -99.614 35.149l13.3 8.886a71.933 71.933 0 0 1 59.914-32.071z"/><path d="m280.311 98.96 13.711-8.244a88.544 88.544 0 0 0 -31.451-30.933l-8.014 13.848a72.53 72.53 0 0 1 25.754 25.329z"/><path d="m171.973 104.932 13.3 8.886a40.432 40.432 0 0 1 13.293-12.469l-8.01-13.849a56.516 56.516 0 0 0 -18.583 17.432z"/><path d="m252.87 115.426 13.712-8.246a56.075 56.075 0 0 0 -57.342-26.406l2.647 15.78a40.511 40.511 0 0 1 6.676-.554 39.729 39.729 0 0 1 34.307 19.426z"/><path d="m198.6 122.682 13.305 8.888a7.981 7.981 0 0 1 13.509.328l13.711-8.244a23.98 23.98 0 0 0 -40.525-.972z"/><path d="m296 216h16v16h-16z"/><path d="m296 248h16v16h-16z"/><path d="m480 192h-80a16.019 16.019 0 0 0 -16 16v48h-11.056l-5.789-11.578a8 8 0 0 0 -7.155-4.422h-16v-48a7.98 7.98 0 0 0 -3.293-6.458c-.022-.017-.034-.035-.057-.052l-56-40a8 8 0 0 0 -4.65-1.49s-64.421.009-64.607.027a7.992 7.992 0 0 0 -3.278.98l-72 40a8 8 0 0 0 -4.115 6.993v56h-16a8 8 0 0 0 -7.155 4.422l-5.789 11.578h-11.056v-40a16.019 16.019 0 0 0 -16-16h-48a16.019 16.019 0 0 0 -16 16v96a16.019 16.019 0 0 0 16 16h48a16.019 16.019 0 0 0 16-16v-40h16a8 8 0 0 0 7.155-4.422l5.789-11.578h11.056v56a8 8 0 0 0 8 8h104v19.056l-11.578 5.789a8 8 0 0 0 -4.422 7.155v16h-24a16.019 16.019 0 0 0 -16 16v64a16.019 16.019 0 0 0 16 16h20.9l-4.49 13.47a8 8 0 0 0 7.59 10.53h48a8 8 0 0 0 7.589-10.53l-4.489-13.47h20.9a16.019 16.019 0 0 0 16-16v-64a16.019 16.019 0 0 0 -16-16h-56v-11.056l11.578-5.789a8 8 0 0 0 4.422-7.155v-24h72a8 8 0 0 0 8-8v-64h11.056l5.789 11.578a8 8 0 0 0 7.155 4.422h16v56a8 8 0 0 0 8 8h96a8 8 0 0 0 8-8v-120a16.019 16.019 0 0 0 -16-16zm-400 32v8h-48v-8zm-48 24h48v48h-48zm48 72h-48v-8h48.009v8zm188.9 160h-25.8l2.666-8h20.468zm35.1-24h-96v-8h96.009v8zm.006-24h-96.006v-40h96zm-26.569-272 33.6 24h-36.473l-33.6-24zm-13.437 152h-32v-21.578l14.656-21.984a8 8 0 0 0 1.344-4.438v-32h-16v29.578l-14.656 21.984a8 8 0 0 0 -1.344 4.438v24h-32v-11.056l11.578-5.789a8 8 0 0 0 4.422-7.155v-15.732a24.945 24.945 0 0 0 8-41.592v-10.395l20.438-13.625a8 8 0 0 0 3.562-6.656v-26.74l32 22.857zm-64-63.029a8.971 8.971 0 1 1 -8.971-8.971 8.98 8.98 0 0 1 8.971 8.971zm-48-52.264 63.465-35.258.535.383v33.887l-20.438 13.625a8 8 0 0 0 -3.562 6.656v8.025c-.323-.013-.645-.025-.971-.025a24.968 24.968 0 0 0 -7.029 48.927v10.129l-11.578 5.789a8 8 0 0 0 -4.422 7.155v16h-16zm176 115.293h-16v-32h-16v32h-16v-112h48zm72-104h80v80h-80zm80 112h-80v-16h80z"/><path d="m440 216a32 32 0 1 0 32 32 32.036 32.036 0 0 0 -32-32zm0 48a16 16 0 1 1 16-16 16.019 16.019 0 0 1 -16 16z"/><path d="m360 112h8v19.056l-4.422-2.211a8 8 0 0 0 -7.156 14.31l16 8a8 8 0 0 0 11.578-7.155v-32h40a32 32 0 0 0 15.819-59.816 40 40 0 0 0 -71.819-20.184 24.04 24.04 0 0 0 -23.685 20.106 32 32 0 0 0 15.685 59.894zm-5.288-47.1a8 8 0 0 0 5.328-8.214c-.019-.227-.04-.454-.04-.684a8.009 8.009 0 0 1 8-8 7.9 7.9 0 0 1 2 .27 8 8 0 0 0 8.99-3.872 24 24 0 0 1 45.01 11.6c0 .346-.013.688-.027 1.03a8 8 0 0 0 5.338 7.876 16 16 0 0 1 -5.311 31.094h-64a16 16 0 0 1 -5.288-31.1z"/><path d="m411.578 120.845a8 8 0 0 0 -11.578 7.155v40a8 8 0 0 0 16 0v-27.056l4.422 2.211a8 8 0 1 0 7.156-14.31z"/></g></svg>