<svg height="512pt" viewBox="-53 0 512 512.025" width="512pt" xmlns="http://www.w3.org/2000/svg"><path d="m203.210938 81.324219c-4.5 0-8.199219-3.699219-8.199219-8.199219s3.699219-8.199219 8.199219-8.199219 8.203124 3.699219 8.203124 8.199219-3.703124 8.199219-8.203124 8.199219zm0-8.199219" fill="#95d6a4"/><path d="m236.613281 25.523438c-1.402343 0-2.902343-.398438-4.199219-1.199219-18-10.800781-40.402343-10.800781-58.5 0-3.800781 2.300781-8.800781 1.101562-11.101562-2.800781-2.300781-3.796876-1.101562-8.796876 2.800781-11.097657 23.199219-13.902343 52-13.902343 75.199219 0 3.800781 2.300781 5.101562 7.300781 2.800781 11.097657-1.5 2.601562-4.199219 4-7 4zm0 0" fill="#ccf49f"/><path d="m219.914062 53.425781c-1.402343 0-2.902343-.402343-4.203124-1.199219-7.699219-4.601562-17.296876-4.601562-25 0-3.898438 2.296876-8.796876 1.097657-11.097657-2.800781-2.300781-3.800781-1.101562-8.800781 2.800781-11.101562 12.898438-7.699219 28.796876-7.699219 41.699219 0 3.800781 2.300781 5.097657 7.300781 2.800781 11.101562-1.601562 2.597657-4.300781 4-7 4zm0 0" fill="#b3e59f"/><path d="m406.414062 308.824219c0 112.226562-90.976562 203.199219-203.203124 203.199219-112.222657 0-203.1992192-90.972657-203.1992192-203.199219 0-112.222657 90.9765622-203.199219 203.1992192-203.199219 112.226562 0 203.203124 90.976562 203.203124 203.199219zm0 0" fill="#dad8db"/><path d="m373.914062 308.824219c0 94.277343-76.425781 170.699219-170.703124 170.699219-94.273438 0-170.699219-76.421876-170.699219-170.699219 0-94.273438 76.425781-170.699219 170.699219-170.699219 94.277343 0 170.703124 76.425781 170.703124 170.699219zm0 0" fill="#c8c5c9"/><path d="m260.113281 382.023438c0 31.425781-25.476562 56.902343-56.902343 56.902343-31.421876 0-56.898438-25.476562-56.898438-56.902343 0-31.421876 25.476562-56.898438 56.898438-56.898438 31.425781 0 56.902343 25.476562 56.902343 56.898438zm0 0" fill="#eceaec"/><path d="m219.511719 203.226562c0 9-7.296875 16.296876-16.300781 16.296876-9 0-16.296876-7.296876-16.296876-16.296876 0-9.003906 7.296876-16.300781 16.296876-16.300781 9.003906 0 16.300781 7.296875 16.300781 16.300781zm0 0" fill="#ccf49f"/><g fill="#eceaec"><path d="m154.414062 211.324219h-8.101562c-4.5 0-8.101562-3.597657-8.101562-8.097657s3.601562-8.101562 8.101562-8.101562h8.101562c4.5 0 8.097657 3.601562 8.097657 8.101562s-3.597657 8.097657-8.097657 8.097657zm0 0"/><path d="m260.113281 211.324219h-8.101562c-4.5 0-8.097657-3.597657-8.097657-8.097657s3.597657-8.101562 8.097657-8.101562h8.101562c4.5 0 8.097657 3.601562 8.097657 8.101562s-3.597657 8.097657-8.097657 8.097657zm0 0"/><path d="m203.210938 105.726562c-112.199219 0-203.1992192 91-203.1992192 203.199219h17.0000002c8.402343 0 15.402343-6.5 16.101562-14.902343 7.5-87.296876 80.800781-155.796876 170-155.796876s162.597657 68.5 170.097657 155.796876c.703124 8.402343 7.703124 14.902343 16.101562 14.902343h17c.101562-112.300781-90.898438-203.199219-203.101562-203.199219zm0 0"/></g><path d="m300.710938 168.824219v99.402343c0 9-7.296876 16.296876-16.296876 16.296876h-162.5c-9 0-16.300781-7.296876-16.300781-16.296876v-99.402343c-5.699219 4-11.101562 8.199219-16.300781 12.902343v86.597657c0 17.902343 14.601562 32.5 32.5 32.5h162.5c17.898438 0 32.5-14.597657 32.5-32.5v-86.597657c-5-4.703124-10.398438-8.902343-16.101562-12.902343zm0 0" fill="#dad8db"/><path d="m215.113281 500.125c-112.199219 0-203.199219-91-203.199219-203.199219 0-53.101562 20.398438-101.5 53.699219-137.699219-40.300781 37.097657-65.6015622 90.398438-65.6015622 149.5 0 112.296876 91.0000002 203.296876 203.1992192 203.296876 59.101562 0 112.300781-25.296876 149.5-65.597657-36.199219 33.398438-84.597657 53.699219-137.597657 53.699219zm0 0" fill="#c8c5c9"/><path d="m.0117188 308.824219h12.1992192c-.199219-3.898438-.296876-7.898438-.296876-11.898438 0-53.101562 20.398438-101.5 53.699219-137.699219-40.300781 37.296876-65.6015622 90.5-65.6015622 149.597657zm0 0" fill="#dad8db"/><path d="m209.511719 213.125c-9 0-16.300781-7.300781-16.300781-16.300781 0-2.800781.703124-5.5 2-7.898438-5 2.800781-8.398438 8.097657-8.398438 14.199219 0 9 7.300781 16.300781 16.300781 16.300781 6.097657 0 11.398438-3.402343 14.199219-8.402343-2.199219 1.402343-4.898438 2.101562-7.800781 2.101562zm0 0" fill="#b3e59f"/><path d="m215.914062 426.226562c-31.402343 0-56.902343-25.5-56.902343-56.902343 0-12.398438 3.902343-23.898438 10.601562-33.199219-14.101562 10.300781-23.300781 27.101562-23.300781 45.898438 0 31.402343 25.5 56.902343 56.898438 56.902343 18.902343 0 35.601562-9.199219 45.902343-23.300781-9.300781 6.699219-20.800781 10.601562-33.199219 10.601562zm0 0" fill="#dad8db"/></svg>