<svg id="Capa_1" enable-background="new 0 0 512 512" height="512" viewBox="0 0 512 512" width="512" xmlns="http://www.w3.org/2000/svg"><g><g><path d="m7.5 99.425h497v313.15h-497z" fill="#ddebfd" transform="matrix(0 1 -1 0 512 0)"/></g><g><path d="m150.943 242.868h497v26.264h-497z" fill="#bed9fd" transform="matrix(0 1 -1 0 655.443 -143.443)"/></g><g><path d="m304.488 88.313c0-26.779-21.709-48.488-48.488-48.488s-48.488 21.709-48.488 48.488h-75.762v183.85h248.5v-183.85z" fill="#4172ca"/></g><g><path d="m412.575 23.663h48.488v464.675h-48.488z" fill="#7398d4"/></g><g><path d="m50.937 23.663h48.488v464.675h-48.488z" fill="#7398d4"/></g><g><circle cx="256" cy="88.313" fill="#91dafa" r="16.163"/></g><g><path d="m204.482 96.394h103.037v183.85h-103.037z" fill="#91dafa" transform="matrix(0 1 -1 0 444.319 -67.681)"/></g><g><path d="m283.274 175.187h103.037v26.264h-103.037z" fill="#75cff9" transform="matrix(0 1 -1 0 523.112 -146.474)"/></g><g><path d="m331.762 304.488h48.488v32.325h-48.488z" fill="#e175a5"/></g><g><path d="m131.75 304.488h48.488v32.325h-48.488z" fill="#e9a761" transform="matrix(-1 0 0 -1 311.988 641.301)"/></g><g><path d="m231.756 304.488h48.488v32.325h-48.488z" fill="#b7e546"/></g><g><path d="m387.75 88.313c0-4.142-3.357-7.5-7.5-7.5h-68.762c-3.675-27.34-27.158-48.488-55.488-48.488s-51.813 21.148-55.488 48.488h-68.762c-4.143 0-7.5 3.358-7.5 7.5v183.85c0 4.142 3.357 7.5 7.5 7.5h248.5c4.143 0 7.5-3.358 7.5-7.5zm-15 176.35h-233.5v-168.85h68.262c4.143 0 7.5-3.358 7.5-7.5 0-22.601 18.388-40.988 40.988-40.988s40.988 18.387 40.988 40.988c0 4.142 3.357 7.5 7.5 7.5h68.262z"/><path d="m461.06 89.43c4.143 0 7.5-3.358 7.5-7.5v-58.27c0-4.142-3.357-7.5-7.5-7.5h-40.98v-8.66c0-4.142-3.357-7.5-7.5-7.5h-313.16c-4.143 0-7.5 3.358-7.5 7.5v8.66h-40.98c-4.143 0-7.5 3.358-7.5 7.5v121.91c0 4.142 3.357 7.5 7.5 7.5s7.5-3.358 7.5-7.5v-114.41h33.48v376.34c0 4.142 3.357 7.5 7.5 7.5s7.5-3.358 7.5-7.5v-392.5h298.16v482h-298.16v-54.5c0-4.142-3.357-7.5-7.5-7.5s-7.5 3.358-7.5 7.5v38.34h-33.48v-300.27c0-4.142-3.357-7.5-7.5-7.5s-7.5 3.358-7.5 7.5v307.77c0 4.142 3.357 7.5 7.5 7.5h40.98v8.66c0 4.142 3.357 7.5 7.5 7.5h313.16c4.143 0 7.5-3.358 7.5-7.5v-8.66h40.979c4.143 0 7.5-3.358 7.5-7.5v-371.41c0-4.142-3.357-7.5-7.5-7.5s-7.5 3.358-7.5 7.5v363.91h-33.479v-449.68h33.479v50.77c.001 4.142 3.358 7.5 7.501 7.5z"/><path d="m256 111.976c13.048 0 23.663-10.615 23.663-23.663s-10.615-23.663-23.663-23.663-23.663 10.615-23.663 23.663 10.615 23.663 23.663 23.663zm0-32.326c4.776 0 8.663 3.886 8.663 8.663s-3.887 8.663-8.663 8.663-8.663-3.886-8.663-8.663 3.887-8.663 8.663-8.663z"/><path d="m156.575 136.801v103.037c0 4.142 3.357 7.5 7.5 7.5h183.85c4.143 0 7.5-3.358 7.5-7.5v-103.037c0-4.142-3.357-7.5-7.5-7.5h-183.85c-4.142 0-7.5 3.358-7.5 7.5zm15 7.5h168.85v88.037h-168.85z"/><path d="m387.75 336.813v-32.325c0-4.142-3.357-7.5-7.5-7.5h-48.488c-4.143 0-7.5 3.358-7.5 7.5v32.325c0 4.142 3.357 7.5 7.5 7.5h48.488c4.143 0 7.5-3.358 7.5-7.5zm-15-7.5h-33.488v-17.325h33.488z"/><path d="m124.25 336.813c0 4.142 3.357 7.5 7.5 7.5h48.488c4.143 0 7.5-3.358 7.5-7.5v-32.325c0-4.142-3.357-7.5-7.5-7.5h-48.488c-4.143 0-7.5 3.358-7.5 7.5zm15-24.825h33.488v17.325h-33.488z"/><path d="m287.744 336.813v-32.325c0-4.142-3.357-7.5-7.5-7.5h-48.488c-4.143 0-7.5 3.358-7.5 7.5v32.325c0 4.142 3.357 7.5 7.5 7.5h48.488c4.143 0 7.5-3.358 7.5-7.5zm-15-7.5h-33.488v-17.325h33.488z"/><path d="m208.522 404.923h6c4.143 0 7.5-3.358 7.5-7.5s-3.357-7.5-7.5-7.5h-6c-4.143 0-7.5 3.358-7.5 7.5s3.358 7.5 7.5 7.5z"/><path d="m250.815 389.923c-4.143 0-7.5 3.358-7.5 7.5s3.357 7.5 7.5 7.5h10.369c4.143 0 7.5-3.358 7.5-7.5s-3.357-7.5-7.5-7.5z"/><path d="m303.478 389.923h-6c-4.143 0-7.5 3.358-7.5 7.5s3.357 7.5 7.5 7.5h6c4.143 0 7.5-3.358 7.5-7.5s-3.358-7.5-7.5-7.5z"/><path d="m297.478 469.573h6c4.143 0 7.5-3.358 7.5-7.5s-3.357-7.5-7.5-7.5h-6c-4.143 0-7.5 3.358-7.5 7.5s3.357 7.5 7.5 7.5z"/><path d="m250.815 469.573h10.369c4.143 0 7.5-3.358 7.5-7.5s-3.357-7.5-7.5-7.5h-10.369c-4.143 0-7.5 3.358-7.5 7.5s3.358 7.5 7.5 7.5z"/><path d="m208.522 469.573h6c4.143 0 7.5-3.358 7.5-7.5s-3.357-7.5-7.5-7.5h-6c-4.143 0-7.5 3.358-7.5 7.5s3.358 7.5 7.5 7.5z"/><path d="m187.309 422.248c-4.143 0-7.5 3.358-7.5 7.5s3.357 7.5 7.5 7.5h6c4.143 0 7.5-3.358 7.5-7.5s-3.357-7.5-7.5-7.5z"/><path d="m283.584 437.248c4.143 0 7.5-3.358 7.5-7.5s-3.357-7.5-7.5-7.5h-10.03c-4.143 0-7.5 3.358-7.5 7.5s3.357 7.5 7.5 7.5z"/><path d="m228.416 437.248h10.03c4.143 0 7.5-3.358 7.5-7.5s-3.357-7.5-7.5-7.5h-10.03c-4.143 0-7.5 3.358-7.5 7.5s3.357 7.5 7.5 7.5z"/><path d="m324.691 422.248h-6c-4.143 0-7.5 3.358-7.5 7.5s3.357 7.5 7.5 7.5h6c4.143 0 7.5-3.358 7.5-7.5s-3.357-7.5-7.5-7.5z"/></g></g></svg>