<svg id="Calque_1" data-name="Calque 1" xmlns="http://www.w3.org/2000/svg" viewBox="0 0 768 398"><defs><style>.cls-1{font-size:159.1px;font-family:News701BT-ItalicA, "News 701 BT";font-style:italic;}.cls-1,.cls-11{fill:#002d88;}.cls-2{font-size:104.49px;}.cls-3{font-size:22.27px;fill:#4d4d4d;font-family:NeoSansStd-Regular, Neo Sans Std;}.cls-4{letter-spacing:-0.04em;}.cls-5{letter-spacing:-0.02em;}.cls-6{letter-spacing:-0.05em;}.cls-7{letter-spacing:-0.09em;}.cls-8{letter-spacing:-0.02em;}.cls-9{letter-spacing:0em;}.cls-10{letter-spacing:-0.03em;}.cls-12{fill:#f26522;}</style></defs><text class="cls-1" transform="translate(95.78 324.36)">D<tspan class="cls-2" x="131.1" y="0">omaulec</tspan></text><text class="cls-3" transform="translate(185.53 370.88)">DOM<tspan class="cls-4" x="45.95" y="0">O</tspan><tspan x="59.67" y="0">TIQUE - </tspan><tspan class="cls-5" x="138.92" y="0">A</tspan><tspan x="152.47" y="0">U</tspan><tspan class="cls-6" x="167.21" y="0">T</tspan><tspan x="179.35" y="0">OM</tspan><tspan class="cls-7" x="211.03" y="0">A</tspan><tspan x="223.12" y="0">TISME - E</tspan><tspan class="cls-8" x="314.38" y="0">L</tspan><tspan class="cls-9" x="325.38" y="0">ECTRICI</tspan><tspan class="cls-10" x="400.89" y="0">T</tspan><tspan x="413.43" y="0">É</tspan></text><polyline class="cls-11" points="620.5 344.38 636.63 362.82 620.52 376.9"/><polyline class="cls-11" points="162.38 344.38 146.26 362.82 162.36 376.9"/><path class="cls-12" d="M326.12,247.78,355.39,219,336,210l55.5-30.4,0,.07q-14.5,14.31-29,28.69l19.33,9-55.69,30.52Z"/><path class="cls-12" d="M332.75,247.21l2.66-1.49,3.67-2a.87.87,0,0,1,1.06,0,35.28,35.28,0,0,0,18.7,5.45A35.49,35.49,0,0,0,375,245.33a35.41,35.41,0,0,0,13-52.05c-.8-1.13-1.71-2.17-2.58-3.24-.17-.2-.3-.36-.06-.6,1.57-1.56,3.12-3.13,4.68-4.69,0,0,.06,0,.09-.05a42.54,42.54,0,0,1-57.34,62.51Z"/><path class="cls-12" d="M332.83,237.63l-5.15,5c-8.84-10.15-12.74-21.81-10.85-35.13a42,42,0,0,1,28.86-34.29c14.31-4.56,27.48-1.95,39.67,6.89l-2.9,1.6c-1.21.67-2.43,1.32-3.63,2a.83.83,0,0,1-1,0,35.78,35.78,0,0,0-13.58-5.07A35.34,35.34,0,0,0,335.61,187a34.59,34.59,0,0,0-7.06,8.47,36.73,36.73,0,0,0-3.8,8.94A35.21,35.21,0,0,0,327,229a36,36,0,0,0,4.74,7.39C332.07,236.77,332.43,237.17,332.83,237.63Z"/><path class="cls-12" d="M437.69,91.72l-8.47-7.88c-34.42,20.07-68.32,20-102.24,0l-8.54,7.9C350.61,117.91,407.06,117.09,437.69,91.72Z"/><path class="cls-12" d="M454.61,109.11l-9-8.36c-40,28.64-91.7,30-135.2.45-3.73,3.44-4.95,4.58-8.58,7.94C343.05,142.66,415.37,141.61,454.61,109.11Z"/><path class="cls-12" d="M420.4,75a21.47,21.47,0,0,1-2.49-1.64c-1.69-1.46-3.15-3.26-5-4.43a4.89,4.89,0,0,0-4.05-.33q-30.94,15.6-61.74-.13a4.09,4.09,0,0,0-3.64.3c-2.61,2-4.93,4.44-7.4,6.75C360.19,93.94,400,91.93,420.4,75Z"/><path class="cls-12" d="M401.64,58.36C394,51.15,386.35,44,378.41,36.46l-24,22C366.49,67.78,391.06,67.69,401.64,58.36Z"/><path class="cls-12" d="M474.88,111.13c1.25,1.17,1.87,3,2.78,4.54-1.83.68-3.63,1.83-5.49,1.93-5.11.27-10.24.07-15.36.11-1.38,0-2.75.25-4.45.41v6.14q0,12.49,0,25h9.2V137.76c0-10.74,0-10.74,10.5-10.81.64,0,1.28,0,1.93,0,5.85,0,10.29-2.37,12.52-7.89s.12-9.94-4-13.74q-47.1-43.47-94.2-87c-6.56-6.05-13.91-6-20.57.05-5.57,5.05-10.94,10.34-16.64,15.25A10.31,10.31,0,0,1,345.23,36c-7,.29-14.09,0-21.13.16-10.48.18-17,6.72-17.24,17.14-.1,5.6.33,11.24-.2,16.8a13.32,13.32,0,0,1-3.48,7.77C293.31,87.41,283.05,96.6,273,106c-3.84,3.59-5.27,8-3.29,13.07s5.8,7.5,11.07,7.8a48.35,48.35,0,0,0,8.16,0c4.8-.55,6.18,1.55,5.82,6-.55,6.82-1.08,13.67-1,20.5q.21,23.74,1,47.47c.35,10.19,6.6,16,16.93,16.17,2.25,0,4.51.1,6.76.13v-9.38c-1.53,0-3.06,0-4.59,0-8,0-9.92-2-9.93-9.91,0-25.14-.08-50.27.07-75.4,0-3.77-1-5.12-4.86-4.9-5.27.3-10.57.21-15.84,0-1.58-.07-3.12-1.12-4.68-1.72.72-1.44,1.11-3.24,2.22-4.27,10.14-9.55,20.3-19.07,30.68-28.34,3.12-2.79,4.67-5.63,4.43-9.89-.34-6.22-.19-12.48-.07-18.72.12-6.66,2.77-9.24,9.49-9.32,7.52-.08,15.06.23,22.56-.15a13.63,13.63,0,0,0,7.56-2.92c5.89-4.92,11.37-10.32,17-15.55,5.12-4.74,6-4.77,11.11-.05Q415.17,55.83,446.72,85C456.12,93.7,465.56,102.35,474.88,111.13Z"/><path class="cls-12" d="M477.78,157.29H436.84c-1.91,0-1.92,0-1.92,2.08v67.25c0,2.07,0,2.07,1.92,2.07h41c1.91,0,1.91,0,1.91-2.08V159.36C479.7,157.3,479.7,157.29,477.78,157.29Zm1,70.4h-43V158.3h43Z"/><path class="cls-12" d="M485.33,199.28q0,21.25,0,42.51a8.94,8.94,0,0,1-3.93,7.62,8.84,8.84,0,0,1-5.95,1.66c-1.21-.08-2.44.05-3.65.05H445.14c-1.74,0-3.48,0-5.22,0a21.46,21.46,0,0,1-3.5-.27,8.63,8.63,0,0,1-4.19-2.34,9.06,9.06,0,0,1-2.93-7.06q0-18.94,0-37.89,0-23.31,0-46.62a9.06,9.06,0,0,1,.87-4.17,8.91,8.91,0,0,1,3.05-3.62,7.72,7.72,0,0,1,3.28-1.51c1.86-.2,3.74-.18,5.6-.24.78,0,1.56,0,2.33,0h24.08c2.25,0,4.5.11,6.75,0a10.28,10.28,0,0,1,3.91.51,9.23,9.23,0,0,1,6.16,8.71Zm-54,21.14q0,10.68,0,21.35a7.38,7.38,0,0,0,5.5,7.19,14.23,14.23,0,0,0,3.46.25c2.15,0,4.3,0,6.44-.05h23.69c1.89,0,3.79.09,5.69,0a6.69,6.69,0,0,0,2.52-.48,7.4,7.4,0,0,0,4.77-7.3q0-18.61,0-37.25c0-1.26.08-2.52.08-3.78,0-1.43-.08-2.86-.08-4.28q0-19.43,0-38.84c0-.32,0-.63,0-1a7.31,7.31,0,0,0-7.27-7c-2.59-.08-5.19,0-7.79,0H448.7c-3.31,0-6.62,0-9.94,0a7.3,7.3,0,0,0-7.47,7.5v63.58Z"/><path class="cls-12" d="M457.29,246a6.08,6.08,0,1,1,6.1-6A6,6,0,0,1,457.29,246Zm4.12-6.05a4.09,4.09,0,1,0-4.12,4.09A4.11,4.11,0,0,0,461.41,240Z"/><path class="cls-12" d="M449.61,152.5H465a1.09,1.09,0,0,1-.68,1.18,5.19,5.19,0,0,1-2.06.69c-3.29.07-6.59.07-9.88,0a5.45,5.45,0,0,1-2-.65A1.25,1.25,0,0,1,449.61,152.5Z"/></svg>